<svg width="17" height="18" viewBox="0 0 17 18" fill="none" xmlns="http://www.w3.org/2000/svg">
<path d="M17 11.0349V18H13.3556V11.5017C13.3556 9.87004 12.8294 8.75576 11.5098 8.75576C10.5028 8.75576 9.90462 9.50594 9.64044 10.2323C9.54449 10.4919 9.51976 10.8524 9.51976 11.2165V17.9997H5.87504C5.87504 17.9997 5.92396 6.99371 5.87504 5.85444H9.52003V7.57554C9.5127 7.58909 9.50237 7.60234 9.49584 7.61529H9.52003V7.57554C10.0044 6.74977 10.8681 5.56925 12.8046 5.56925C15.2024 5.56925 17 7.3051 17 11.0349ZM2.06235 0C0.815645 0 0 0.906776 0 2.09814C0 3.26421 0.791999 4.19719 2.01452 4.19719H2.03816C3.30933 4.19719 4.0997 3.26421 4.0997 2.09814C4.07551 0.906776 3.30933 0 2.06235 0ZM0.216617 18H3.85998V5.85444H0.216617V18Z" fill="white"/>
</svg>
