<svg width="14" height="20" viewBox="0 0 14 20" fill="none" xmlns="http://www.w3.org/2000/svg">
<path d="M7.19569 20C7.06282 20 6.92995 20 6.79709 20C6.37722 19.8906 6.07428 19.6562 5.86169 19.276C4.21944 16.3021 2.56124 13.3333 0.908358 10.3594C0.137722 8.97396 -0.143959 7.50521 0.0686302 5.9375C0.440662 3.25 2.50278 0.927083 5.17609 0.239583C5.60127 0.130208 6.04771 0.078125 6.4782 0C6.82366 0 7.16912 0 7.51457 0C7.80157 0.0416667 8.09388 0.0729167 8.37556 0.130208C11.5485 0.75 13.9295 3.55729 13.9986 6.73438C14.0251 8.06771 13.685 9.30208 13.0366 10.4688C11.4209 13.3542 9.81054 16.25 8.2108 19.1458C7.97696 19.5677 7.68465 19.8854 7.19569 20ZM7.00436 3.4375C5.4312 3.4375 4.13972 4.69271 4.1344 6.23437C4.12909 7.79167 5.40994 9.0625 6.99373 9.0625C8.56689 9.0625 9.85837 7.80729 9.86369 6.26562C9.869 4.70833 8.58284 3.4375 7.00436 3.4375Z" fill="white"/>
</svg>
