<svg width="20" height="14" viewBox="0 0 20 14" fill="none" xmlns="http://www.w3.org/2000/svg">
<path d="M19.8228 12.3499C19.7665 12.5191 19.7153 12.6832 19.6642 12.8371C17.6841 10.8626 15.7142 8.90353 13.7392 6.9393C15.7244 4.96482 17.6943 3.00573 19.6744 1.0415C19.7153 1.16459 19.7716 1.33383 19.8228 1.50307C19.8228 5.11868 19.8228 8.73428 19.8228 12.3499Z" fill="white"/>
<path d="M1.20255 0.144419C1.43279 0.0931339 1.63233 0.0469772 1.82676 0.0110776C1.88816 -0.00430796 1.95468 0.000820563 2.01608 0.000820563C7.34239 0.000820563 12.6738 0.000820563 18.0001 0.00594908C18.2611 0.00594908 18.522 0.0726198 18.783 0.108519C18.7881 0.134162 18.7881 0.154676 18.7932 0.180319C18.7472 0.226475 18.7011 0.277761 18.6551 0.323917C15.9586 3.0369 13.2673 5.75502 10.5709 8.46801C10.1974 8.84752 9.83415 8.84752 9.46064 8.47314C6.76423 5.75502 4.06269 3.0369 1.36627 0.318789C1.32023 0.272632 1.27929 0.226475 1.20255 0.144419Z" fill="white"/>
<path d="M12.8842 7.79639C14.8592 9.76061 16.824 11.7146 18.8296 13.7096C18.5943 13.7609 18.405 13.807 18.2054 13.8429C18.1287 13.8583 18.0519 13.848 17.9752 13.848C12.6642 13.848 7.35835 13.848 2.04739 13.848C1.76598 13.848 1.4948 13.8224 1.21851 13.6788C3.19861 11.7095 5.16336 9.75548 7.14346 7.78613C7.16393 7.80152 7.20998 7.84767 7.26114 7.89383C7.73186 8.36566 8.19747 8.83748 8.66819 9.3093C9.46125 10.1042 10.5613 10.1042 11.3544 9.3093C11.8763 8.79645 12.393 8.2836 12.8842 7.79639Z" fill="white"/>
<path d="M0.34336 12.8371C0.302427 12.6166 0.215446 12.3807 0.215446 12.1448C0.21033 8.66762 0.21033 5.19049 0.215446 1.70822C0.215446 1.47231 0.297311 1.2364 0.34336 1.01074C2.33881 2.99548 4.30868 4.9597 6.28878 6.92906C4.3138 8.88815 2.34393 10.8472 0.34336 12.8371Z" fill="white"/>
</svg>
