<svg width="19" height="20" viewBox="0 0 19 20" fill="none" xmlns="http://www.w3.org/2000/svg">
<path d="M5.89915 1.33348C6.19991 1.45509 6.48524 1.59785 6.70044 1.85153C6.72999 1.88814 6.76404 1.92154 6.78973 1.9575C7.38067 2.78457 7.97611 3.60844 8.56255 4.43872C8.99804 5.05773 8.96488 5.80004 8.4973 6.34296C8.2857 6.58846 8.01823 6.74151 7.69938 6.79889C7.23717 6.8837 6.85718 7.09308 6.59601 7.49251C6.42425 7.76051 6.35597 8.04981 6.38602 8.36744C6.4653 9.19586 6.78953 9.93473 7.21984 10.632C7.73364 11.4699 8.35869 12.2117 9.16573 12.79C9.50178 13.0323 9.85392 13.2496 10.2878 13.2629C10.8599 13.2796 11.3337 13.078 11.6425 12.5837C11.8438 12.2573 12.0735 11.9753 12.4463 11.832C13.052 11.601 13.7429 11.7603 14.145 12.2708C14.5111 12.7358 14.849 13.2276 15.192 13.7125C15.5067 14.153 15.8388 14.5845 16.1221 15.0474C16.4811 15.6259 16.3598 16.4208 15.8788 16.9021C15.7791 17.0001 15.6724 17.093 15.5598 17.1731C15.0731 17.5229 14.5767 17.8592 14.0957 18.2218C13.5832 18.6068 13.0136 18.7172 12.396 18.6414C11.732 18.5579 11.1279 18.3063 10.5457 17.9951C9.39994 17.3798 8.41111 16.5613 7.49754 15.6485C5.98327 14.1326 4.7185 12.4289 3.70128 10.5491C2.94993 9.16493 2.35159 7.71933 2.09399 6.1567C1.98185 5.4771 1.94235 4.78989 2.09246 4.10673C2.22389 3.51146 2.5089 3.0171 3.03101 2.66929C3.4689 2.37464 3.89651 2.07036 4.31833 1.75324C4.69 1.47519 5.079 1.25941 5.55979 1.27664C5.67163 1.29537 5.78346 1.3141 5.89915 1.33348Z" fill="white"/>
</svg>
