<svg width="24" height="24" viewBox="0 0 24 24" fill="none" xmlns="http://www.w3.org/2000/svg">
<path d="M0.00216458 9.47787C-0.0971599 5.0767 3.22884 0.586015 8.514 0.0479728C13.524 -0.461751 18.0719 3.14834 18.7508 8.12226C19.0861 10.5814 18.554 12.8395 17.147 14.8784C16.9456 15.1707 16.9757 15.3233 17.2126 15.5589C19.1208 17.4544 21.0161 19.3636 22.917 21.2673C23.1457 21.4966 23.3498 21.735 23.3881 22.0766C23.4519 22.6403 23.2013 23.1299 22.722 23.3628C22.2417 23.5967 21.7014 23.4935 21.2685 23.0605C19.3659 21.1595 17.4614 19.2595 15.5751 17.3421C15.2881 17.0497 15.1104 17.0114 14.7541 17.2553C8.99422 21.2088 1.08562 17.7422 0.0841756 10.8417C0.0176556 10.3868 0.00945445 9.9337 0.00216458 9.47787ZM2.42696 9.44224C2.4224 13.3191 5.53062 16.4642 9.37603 16.4733C13.277 16.4834 16.4098 13.3739 16.4144 9.48792C16.419 5.60561 13.3153 2.46414 9.46806 2.45592C5.57254 2.4477 2.4306 5.56542 2.42696 9.44224Z" fill="#FFA410"/>
</svg>
