<svg width="22" height="18" viewBox="0 0 22 18" fill="none" xmlns="http://www.w3.org/2000/svg">
<path d="M22 2.13092C21.1908 2.49218 20.3203 2.73652 19.4074 2.84564C20.3395 2.28342 21.0548 1.39384 21.3924 0.332109C20.5203 0.852979 19.5539 1.23084 18.5262 1.43451C17.7029 0.551709 16.5298 0 15.2308 0C12.7386 0 10.7172 2.03502 10.7172 4.54414C10.7172 4.90031 10.7573 5.24699 10.8347 5.57978C7.08357 5.39034 3.75755 3.58136 1.53123 0.83129C1.14278 1.50229 0.919949 2.28342 0.919949 3.11607C0.919949 4.69223 1.71737 6.0837 2.92781 6.89839C2.18829 6.87501 1.49184 6.67066 0.883595 6.3294C0.883258 6.34872 0.883258 6.36803 0.883258 6.38701C0.883258 8.58876 2.43973 10.4252 4.50415 10.8424C4.1258 10.9467 3.72625 11.002 3.31525 11.002C3.02375 11.002 2.74133 10.9738 2.46599 10.921C3.04024 12.7259 4.70678 14.0398 6.68233 14.0767C5.13731 15.2957 3.19138 16.0219 1.07613 16.0219C0.712598 16.0219 0.352428 16.0006 0 15.9582C1.99642 17.248 4.3695 18 6.9183 18C15.2204 18 19.7605 11.0759 19.7605 5.07043C19.7605 4.87354 19.7562 4.67732 19.7474 4.4828C20.63 3.8423 21.3951 3.04219 22 2.13092Z" fill="white"/>
</svg>
