<svg width="21" height="18" viewBox="0 0 21 18" fill="none" xmlns="http://www.w3.org/2000/svg">
<path d="M10.5026 17.9913C12.6277 17.9913 14.7528 17.9667 16.8779 17.9995C19.0167 18.0324 20.4995 16.2765 20.8685 14.3894C20.9505 13.9873 20.9915 13.5607 20.9915 13.1422C21.0051 10.3854 20.9983 7.62853 20.9983 4.87167C20.9915 2.0902 19.2627 0.00615501 16.9462 0.00615501C12.6413 -0.0020504 8.33645 -0.0020504 4.0384 0.00615501C1.73562 0.00615501 0.00683316 2.09841 0 4.85526C0 7.62032 0 10.3854 0 13.1504C0.00683316 15.8417 1.66046 17.9257 3.8949 17.9749C6.09518 18.0242 8.30229 17.9831 10.5026 17.9913ZM7.76247 12.8469C7.76247 10.2459 7.76247 7.70237 7.76247 5.11782C9.60058 6.4142 11.4114 7.68596 13.2563 8.98234C11.4045 10.2869 9.60058 11.5505 7.76247 12.8469Z" fill="white"/>
</svg>
